HIERARCHY
ROOT joint_Root
{
  OFFSET 0 0 0
  CHANNELS 6 Xposition Yposition Zposition Zrotation Xrotation Yrotation
  JOINT Hips
  {
    OFFSET 0.847027 93.984 -452.225
    CHANNELS 6 Xposition Yposition Zposition Zrotation Xrotation Yrotation
    JOINT Spine
    {
      OFFSET 15.7357 0 0
      CHANNELS 6 Xposition Yposition Zposition Zrotation Xrotation Yrotation
      JOINT Chest
      {
        OFFSET 8.98455 -0.406207 0
        CHANNELS 6 Xposition Yposition Zposition Zrotation Xrotation Yrotation
        JOINT Neck
        {
          OFFSET 16.3773 0 0
          CHANNELS 6 Xposition Yposition Zposition Zrotation Xrotation Yrotation
          JOINT Head
          {
            OFFSET 6.45672 0 0
            CHANNELS 6 Xposition Yposition Zposition Zrotation Xrotation Yrotation
            End Site
            {
              OFFSET 0 0 0
            }
          }
        }
        JOINT Shoulder_L
        {
          OFFSET 12.9942 -0.242716 4.98039
          CHANNELS 6 Xposition Yposition Zposition Zrotation Xrotation Yrotation
          JOINT UpperArm_L
          {
            OFFSET 5.34809 0 0
            CHANNELS 6 Xposition Yposition Zposition Zrotation Xrotation Yrotation
            JOINT LowerArm_L
            {
              OFFSET 24.3286 1.87007e-05 0
              CHANNELS 6 Xposition Yposition Zposition Zrotation Xrotation Yrotation
              JOINT Hand_L
              {
                OFFSET 22.2916 0 0
                CHANNELS 6 Xposition Yposition Zposition Zrotation Xrotation Yrotation
                End Site
                {
                  OFFSET 0 0 0
                }
              }
            }
          }
        }
        JOINT Shoulder_R
        {
          OFFSET 12.9945 -0.242716 -4.98039
          CHANNELS 6 Xposition Yposition Zposition Zrotation Xrotation Yrotation
          JOINT UpperArm_R
          {
            OFFSET -5.34813 0 0
            CHANNELS 6 Xposition Yposition Zposition Zrotation Xrotation Yrotation
            JOINT LowerArm_R
            {
              OFFSET -24.3289 0.000322201 0
              CHANNELS 6 Xposition Yposition Zposition Zrotation Xrotation Yrotation
              JOINT Hand_R
              {
                OFFSET -22.2915 -0.000108084 0
                CHANNELS 6 Xposition Yposition Zposition Zrotation Xrotation Yrotation
                End Site
                {
                  OFFSET 0 0 0
                }
              }
            }
          }
        }
      }
    }
    JOINT UpperLeg_L
    {
      OFFSET -2.19248 -6.46944 0
      CHANNELS 6 Xposition Yposition Zposition Zrotation Xrotation Yrotation
      JOINT LowerLeg_L
      {
        OFFSET 39.0811 0 -1.23785e-05
        CHANNELS 6 Xposition Yposition Zposition Zrotation Xrotation Yrotation
        JOINT Foot_L
        {
          OFFSET 40.9854 0 -1.26872e-05
          CHANNELS 6 Xposition Yposition Zposition Zrotation Xrotation Yrotation
          JOINT Toes_L
          {
            OFFSET 11.7543 0 0
            CHANNELS 6 Xposition Yposition Zposition Zrotation Xrotation Yrotation
            End Site
            {
              OFFSET 0 0 0
            }
          }
        }
      }
    }
    JOINT UpperLeg_R
    {
      OFFSET -2.19251 6.46944 0
      CHANNELS 6 Xposition Yposition Zposition Zrotation Xrotation Yrotation
      JOINT LowerLeg_R
      {
        OFFSET -39.0811 -0.00228153 -0.0401928
        CHANNELS 6 Xposition Yposition Zposition Zrotation Xrotation Yrotation
        JOINT Foot_R
        {
          OFFSET -40.9854 0 0
          CHANNELS 6 Xposition Yposition Zposition Zrotation Xrotation Yrotation
          JOINT Toes_R
          {
            OFFSET -11.7543 0 0
            CHANNELS 6 Xposition Yposition Zposition Zrotation Xrotation Yrotation
            End Site
            {
              OFFSET 0 0 0
            }
          }
        }
      }
    }
  }
}
MOTION
Frames:	4
Frame Time:	0.0333333
0 0 0 0 0 -0 -5.15789 91.448 -6.68995 89.2282 9.57069 -1.81925 15.7357 5.1072e-06 -5.51765e-07 125.575 85.8402 -128.111 8.98455 -0.406207 -4.3199e-07 -0.882655 5.0304 -5.0343 16.3773 -1.3905e-06 -6.99897e-07 -7.52737 -10.6635 3.02771 6.45672 -1.25837e-06 -1.02172e-07 -13.9463 -18.5228 -1.64041 12.9942 -0.242716 4.98039 -90.6026 2.29385 -90.2786 5.34809 -7.22636e-06 -6.2814e-07 -68.9335 19.6032 -6.20795 24.3286 1.87007e-05 4.90208e-06 -19.7096 15.5987 -126.892 22.2916 -9.88446e-07 4.63217e-06 16.1654 5.5889 -10.6996 12.9945 -0.242716 -4.98039 90.0399 3.62047 -105.631 -5.34813 -1.25947e-06 -3.79883e-06 -60.703 -39.3833 -89.7868 -24.3289 0.000322201 -8.65921e-06 -5.42765 -34.5489 -9.50942 -22.2915 -0.000108084 -4.47941e-06 23.6438 5.34465 -1.21775 -2.19248 -6.46944 -1.22534e-07 -173.11 4.2665 -18.3432 39.0811 -6.73843e-06 -1.23785e-05 0.0218781 -0.0285804 28.0467 40.9854 -6.48686e-06 -1.26872e-05 -2.86409 4.35611 -61.88 11.7543 -2.30145e-07 3.05095e-06 -0.0600672 -0.110099 -17.0451 -2.19251 6.46944 -1.45247e-06 -179.014 17.8359 164.109 -39.0811 -0.00228153 -0.0401928 0.022604 -0.0152303 28.4138 -40.9854 7.72618e-06 5.99936e-06 0.79401 1.34281 -64.8755 -11.7543 -5.6619e-06 -5.58687e-06 0.0511194 -0.0574143 -17.1393 
0 0 0 0 0 -0 -5.14099 91.4543 -6.55282 89.2765 9.83654 -1.88762 15.7357 5.1072e-06 -5.51765e-07 126.02 85.8353 -128.515 8.98455 -0.406207 -4.3199e-07 -0.913289 5.08613 -4.9499 16.3773 -1.3905e-06 -6.99897e-07 -7.49924 -10.7827 3.01831 6.45672 -1.25837e-06 -1.02172e-07 -13.8993 -18.6912 -2.15396 12.9942 -0.242716 4.98039 -90.5965 2.27878 -90.3265 5.34809 -7.22636e-06 -6.2814e-07 -68.9075 19.6055 -6.03621 24.3286 1.87007e-05 4.90208e-06 -19.5602 15.4181 -126.806 22.2916 -9.88446e-07 4.63217e-06 16.1497 5.58659 -10.572 12.9945 -0.242716 -4.98039 90.0402 3.603 -105.639 -5.34813 -1.25947e-06 -3.79883e-06 -60.4599 -39.6533 -89.6767 -24.3289 0.000322201 -8.65921e-06 -5.32699 -34.2568 -9.40367 -22.2915 -0.000108084 -4.47941e-06 23.6818 5.34632 -1.26753 -2.19248 -6.46944 -1.22534e-07 -173.154 4.37828 -18.3168 39.0811 -6.73843e-06 -1.23785e-05 0.0213993 -0.0277787 27.9618 40.9854 -6.48686e-06 -1.26872e-05 -2.8404 4.5008 -61.8752 11.7543 -2.30145e-07 3.05095e-06 -0.11787 -0.182464 -17.1438 -2.19251 6.46944 -1.45247e-06 -179.071 18.0346 164.178 -39.0811 -0.00228153 -0.0401928 0.0213683 -0.0127675 28.3972 -40.9854 7.72618e-06 5.99936e-06 0.746371 1.28291 -64.9839 -11.7543 -5.6619e-06 -5.58687e-06 0.0527532 -0.0592619 -17.1574 
0 0 0 0 0 -0 -5.12604 91.4757 -6.411 89.3369 10.0918 -1.96268 15.7357 5.1072e-06 -5.51765e-07 126.441 85.8375 -128.917 8.98455 -0.406207 -4.3199e-07 -0.953082 5.13226 -4.9107 16.3773 -1.3905e-06 -6.99897e-07 -7.43758 -10.8587 3.06173 6.45672 -1.25837e-06 -1.02172e-07 -13.826 -18.7353 -2.60329 12.9942 -0.242716 4.98039 -90.5974 2.27771 -90.2993 5.34809 -7.22636e-06 -6.2814e-07 -68.8699 19.5988 -5.86823 24.3286 1.87007e-05 4.90208e-06 -19.5573 15.4037 -126.786 22.2916 -9.88446e-07 4.63217e-06 16.0834 5.5863 -10.556 12.9945 -0.242716 -4.98039 90.0392 3.59445 -105.625 -5.34813 -1.25947e-06 -3.79883e-06 -60.3401 -39.9107 -89.6058 -24.3289 0.000322201 -8.65921e-06 -5.4443 -34.9593 -9.44202 -22.2915 -0.000108084 -4.47941e-06 23.5608 5.35371 -1.48884 -2.19248 -6.46944 -1.22534e-07 -173.218 4.41552 -18.2851 39.0811 -6.73843e-06 -1.23785e-05 0.020966 -0.0270218 27.8701 40.9854 -6.48686e-06 -1.26872e-05 -2.79443 4.67655 -61.8725 11.7543 -2.30145e-07 3.05095e-06 -0.0833396 -0.142577 -17.1215 -2.19251 6.46944 -1.45247e-06 -179.134 18.1939 164.292 -39.0811 -0.00228153 -0.0401928 0.0176456 -0.007292 28.2951 -40.9854 7.72618e-06 5.99936e-06 0.696251 1.19271 -65.0555 -11.7543 -5.6619e-06 -5.58687e-06 0.0484709 -0.054399 -17.1097 
0 0 0 0 0 -0 -5.11897 91.5018 -6.27673 89.3559 10.292 -2.05328 15.7357 5.1072e-06 -5.51765e-07 126.824 85.828 -129.296 8.98455 -0.406207 -4.3199e-07 -0.970066 5.18841 -4.9002 16.3773 -1.3905e-06 -6.99897e-07 -7.38208 -10.8533 3.0602 6.45672 -1.25837e-06 -1.02172e-07 -13.797 -18.7689 -2.73409 12.9942 -0.242716 4.98039 -90.6037 2.29707 -90.2718 5.34809 -7.22636e-06 -6.2814e-07 -68.8845 19.4899 -5.69613 24.3286 1.87007e-05 4.90208e-06 -19.6215 15.5153 -126.882 22.2916 -9.88446e-07 4.63217e-06 16.0606 5.58668 -10.577 12.9945 -0.242716 -4.98039 90.0347 3.61906 -105.55 -5.34813 -1.25947e-06 -3.79883e-06 -60.7067 -40.1273 -89.8915 -24.3289 0.000322201 -8.65921e-06 -5.42296 -34.7728 -9.44867 -22.2915 -0.000108084 -4.47941e-06 23.5635 5.35175 -1.42975 -2.19248 -6.46944 -1.22534e-07 -173.232 4.44732 -18.2316 39.0811 -6.73843e-06 -1.23785e-05 0.0204882 -0.026321 27.707 40.9854 -6.48686e-06 -1.26872e-05 -2.73826 4.82946 -61.8561 11.7543 -2.30145e-07 3.05095e-06 -0.105506 -0.170505 -17.1621 -2.19251 6.46944 -1.45247e-06 -179.143 18.3737 164.392 -39.0811 -0.00228153 -0.0401928 0.0178844 -0.00650408 28.1418 -40.9854 7.72618e-06 5.99936e-06 0.664843 1.16992 -65.0887 -11.7543 -5.6619e-06 -5.58687e-06 0.0479483 -0.0537987 -17.1038 
